<?xml version="1.0" encoding="UTF-8"?>
<svg width="700pt" height="700pt" version="1.1" viewBox="0 0 700 700" xmlns="http://www.w3.org/2000/svg" xmlns:xlink="http://www.w3.org/1999/xlink">
 <defs>
  <symbol id="v" overflow="visible">
   <path d="m3.9062-0.23438c-0.19922 0.10547-0.40625 0.18359-0.625 0.23438s-0.44922 0.078125-0.6875 0.078125c-0.71094 0-1.2734-0.19531-1.6875-0.59375-0.40625-0.39453-0.60938-0.92969-0.60938-1.6094 0-0.67578 0.20312-1.2109 0.60938-1.6094 0.41406-0.39453 0.97656-0.59375 1.6875-0.59375 0.23828 0 0.46875 0.027344 0.6875 0.078125 0.21875 0.054688 0.42578 0.13281 0.625 0.23438v0.89062c-0.21094-0.14453-0.41406-0.25-0.60938-0.3125-0.1875-0.0625-0.39062-0.09375-0.60938-0.09375-0.39844 0-0.71094 0.125-0.9375 0.375-0.21875 0.25-0.32812 0.59375-0.32812 1.0312s0.10938 0.78125 0.32812 1.0312c0.22656 0.25 0.53906 0.375 0.9375 0.375 0.21875 0 0.42188-0.03125 0.60938-0.09375 0.19531-0.0625 0.39844-0.16016 0.60938-0.29688z"/>
  </symbol>
  <symbol id="c" overflow="visible">
   <path d="m2.8594-2.3125c-0.09375-0.039062-0.1875-0.070312-0.28125-0.09375-0.085937-0.019531-0.16797-0.03125-0.25-0.03125-0.26172 0-0.46484 0.085938-0.60938 0.25-0.13672 0.16797-0.20312 0.40625-0.20312 0.71875v1.4688h-1.0312v-3.1875h1.0312v0.53125c0.125-0.21875 0.26953-0.375 0.4375-0.46875 0.17578-0.09375 0.37891-0.14062 0.60938-0.14062 0.039062 0 0.078125 0.007813 0.10938 0.015625 0.039063 0 0.10156 0.007812 0.1875 0.015625z"/>
  </symbol>
  <symbol id="a" overflow="visible">
   <path d="m3.6719-1.6094v0.29688h-2.375c0.019531 0.24219 0.10156 0.42188 0.25 0.54688 0.14453 0.11719 0.35156 0.17188 0.625 0.17188 0.20703 0 0.42578-0.03125 0.65625-0.09375 0.22656-0.0625 0.45703-0.16016 0.6875-0.29688v0.79688c-0.24219 0.085938-0.48047 0.14844-0.71875 0.1875-0.24219 0.050781-0.48047 0.078125-0.71875 0.078125-0.58594 0-1.0391-0.14453-1.3594-0.4375-0.3125-0.28906-0.46875-0.70312-0.46875-1.2344 0-0.51953 0.15625-0.92578 0.46875-1.2188 0.3125-0.30078 0.74219-0.45312 1.2969-0.45312 0.5 0 0.89844 0.15234 1.2031 0.45312 0.30078 0.30469 0.45312 0.70312 0.45312 1.2031zm-1.0469-0.32812c0-0.19531-0.058594-0.35156-0.17188-0.46875-0.11719-0.125-0.26172-0.1875-0.4375-0.1875-0.19922 0-0.35938 0.058594-0.48438 0.17188-0.125 0.11719-0.20312 0.27734-0.23438 0.48438z"/>
  </symbol>
  <symbol id="f" overflow="visible">
   <path d="m1.9219-1.4375c-0.21875 0-0.38281 0.039062-0.48438 0.10938-0.10547 0.074219-0.15625 0.18359-0.15625 0.32812 0 0.125 0.039062 0.22656 0.125 0.29688 0.082031 0.074219 0.20312 0.10938 0.35938 0.10938 0.1875 0 0.34766-0.066406 0.48438-0.20312 0.13281-0.13281 0.20312-0.30469 0.20312-0.51562v-0.125zm1.5469-0.375v1.8125h-1.0156v-0.46875c-0.13672 0.1875-0.29297 0.32812-0.46875 0.42188-0.16797 0.082031-0.375 0.125-0.625 0.125-0.32422 0-0.58984-0.09375-0.79688-0.28125-0.21094-0.19531-0.3125-0.44531-0.3125-0.75 0-0.375 0.125-0.64844 0.375-0.82812 0.25781-0.17578 0.66406-0.26562 1.2188-0.26562h0.60938v-0.078125c0-0.15625-0.070313-0.26953-0.20312-0.34375-0.125-0.082031-0.32422-0.125-0.59375-0.125-0.21875 0-0.42188 0.027344-0.60938 0.078125-0.1875 0.042969-0.35938 0.10547-0.51562 0.1875v-0.78125c0.21875-0.050781 0.4375-0.085937 0.65625-0.10938 0.21875-0.03125 0.4375-0.046875 0.65625-0.046875 0.57031 0 0.98438 0.11719 1.2344 0.34375 0.25781 0.23047 0.39062 0.60156 0.39062 1.1094z"/>
  </symbol>
  <symbol id="b" overflow="visible">
   <path d="m1.6094-4.0938v0.90625h1.0469v0.73438h-1.0469v1.3438c0 0.14844 0.023437 0.24609 0.078125 0.29688 0.0625 0.054688 0.17969 0.078125 0.35938 0.078125h0.51562v0.73438h-0.875c-0.39844 0-0.68359-0.082031-0.85938-0.25-0.16797-0.16406-0.25-0.45312-0.25-0.85938v-1.3438h-0.5v-0.73438h0.5v-0.90625z"/>
  </symbol>
  <symbol id="n" overflow="visible">
   <path d="m2.6562-2.7188v-1.7031h1.0312v4.4219h-1.0312v-0.46875c-0.13672 0.19922-0.29297 0.33984-0.46875 0.42188-0.16797 0.082031-0.35938 0.125-0.57812 0.125-0.39844 0-0.71875-0.15625-0.96875-0.46875s-0.375-0.71094-0.375-1.2031c0-0.48828 0.125-0.89062 0.375-1.2031s0.57031-0.46875 0.96875-0.46875c0.21875 0 0.41016 0.046875 0.57812 0.14062 0.17578 0.085938 0.33203 0.21875 0.46875 0.40625zm-0.67188 2.0625c0.21875 0 0.38281-0.078125 0.5-0.23438 0.11328-0.16406 0.17188-0.39844 0.17188-0.70312 0-0.30078-0.058594-0.53125-0.17188-0.6875-0.11719-0.16406-0.28125-0.25-0.5-0.25s-0.38672 0.085938-0.5 0.25c-0.11719 0.15625-0.17188 0.38672-0.17188 0.6875 0 0.30469 0.054688 0.53906 0.17188 0.70312 0.11328 0.15625 0.28125 0.23438 0.5 0.23438z"/>
  </symbol>
  <symbol id="m" overflow="visible">
   <path d="m2.1875-0.65625c0.21875 0 0.38281-0.078125 0.5-0.23438 0.11328-0.16406 0.17188-0.39844 0.17188-0.70312 0-0.30078-0.058594-0.53125-0.17188-0.6875-0.11719-0.16406-0.28125-0.25-0.5-0.25s-0.38672 0.085938-0.5 0.25c-0.11719 0.15625-0.17188 0.38672-0.17188 0.6875 0 0.30469 0.054687 0.53906 0.17188 0.70312 0.11328 0.15625 0.28125 0.23438 0.5 0.23438zm-0.67188-2.0625c0.13281-0.1875 0.28516-0.32031 0.45312-0.40625 0.17578-0.09375 0.375-0.14062 0.59375-0.14062 0.39453 0 0.71875 0.15625 0.96875 0.46875s0.375 0.71484 0.375 1.2031c0 0.49219-0.125 0.89062-0.375 1.2031s-0.57422 0.46875-0.96875 0.46875c-0.21875 0-0.41797-0.042969-0.59375-0.125-0.16797-0.09375-0.32031-0.23438-0.45312-0.42188v0.46875h-1.0312v-4.4219h1.0312z"/>
  </symbol>
  <symbol id="l" overflow="visible">
   <path d="m0.078125-3.1875h1.0156l0.85938 2.1562 0.71875-2.1562h1.0156l-1.3281 3.4844c-0.13672 0.35156-0.29688 0.60156-0.48438 0.75-0.17969 0.14453-0.41406 0.21875-0.70312 0.21875h-0.59375v-0.67188h0.32812c0.16406 0 0.28516-0.03125 0.35938-0.09375 0.082031-0.054688 0.14844-0.15234 0.20312-0.29688l0.015625-0.078125z"/>
  </symbol>
  <symbol id="k" overflow="visible">
   <path d="m0.53125-4.25h1.3906l0.96875 2.2812 0.98438-2.2812h1.3906v4.25h-1.0469v-3.1094l-0.96875 2.2969h-0.70312l-0.96875-2.2969v3.1094h-1.0469z"/>
  </symbol>
  <symbol id="j" overflow="visible">
   <path d="m0.48438-3.1875h1.0312v3.1875h-1.0312zm0-1.2344h1.0312v0.82812h-1.0312z"/>
  </symbol>
  <symbol id="i" overflow="visible">
   <path d="m2.9844-3.0938v0.78125c-0.21875-0.09375-0.43359-0.16016-0.64062-0.20312-0.19922-0.050781-0.39062-0.078125-0.57812-0.078125s-0.32812 0.027344-0.42188 0.078125c-0.09375 0.054687-0.14062 0.125-0.14062 0.21875 0 0.085937 0.035156 0.15234 0.10938 0.20312 0.070312 0.042969 0.19531 0.074219 0.375 0.09375l0.1875 0.015625c0.51953 0.074219 0.86719 0.1875 1.0469 0.34375 0.17578 0.14844 0.26562 0.38281 0.26562 0.70312 0 0.33594-0.125 0.58984-0.375 0.76562-0.25 0.16797-0.62109 0.25-1.1094 0.25-0.21875 0-0.44531-0.015625-0.67188-0.046875-0.21875-0.03125-0.44922-0.078125-0.6875-0.14062v-0.78125c0.20703 0.09375 0.41406 0.16797 0.625 0.21875 0.21875 0.054687 0.4375 0.078125 0.65625 0.078125 0.19531 0 0.34375-0.023438 0.4375-0.078125 0.10156-0.0625 0.15625-0.14453 0.15625-0.25 0-0.09375-0.039062-0.16016-0.10938-0.20312-0.0625-0.039062-0.19922-0.078125-0.40625-0.10938l-0.17188-0.015625c-0.46094-0.0625-0.78125-0.16406-0.96875-0.3125-0.17969-0.15625-0.26562-0.39062-0.26562-0.70312 0-0.34375 0.11328-0.59375 0.34375-0.75 0.23828-0.16406 0.59766-0.25 1.0781-0.25 0.1875 0 0.37891 0.015625 0.57812 0.046875 0.20703 0.03125 0.4375 0.074219 0.6875 0.125z"/>
  </symbol>
  <symbol id="d" overflow="visible">
   <path d="m3.6875-1.9375v1.9375h-1.0156v-1.4844c0-0.26953-0.011719-0.45703-0.03125-0.5625-0.011719-0.11328-0.027344-0.19141-0.046875-0.23438-0.042969-0.070312-0.10156-0.125-0.17188-0.15625-0.0625-0.039062-0.14062-0.0625-0.23438-0.0625-0.21094 0-0.375 0.085938-0.5 0.25-0.11719 0.16797-0.17188 0.39844-0.17188 0.6875v1.5625h-1.0312v-4.4219h1.0312v1.7031c0.14453-0.1875 0.30078-0.32031 0.46875-0.40625 0.17578-0.09375 0.36719-0.14062 0.57812-0.14062 0.375 0 0.65625 0.11719 0.84375 0.34375 0.1875 0.21875 0.28125 0.54688 0.28125 0.98438z"/>
  </symbol>
  <symbol id="h" overflow="visible">
   <path d="m0.53125-4.25h1.8281c0.53906 0 0.95312 0.12109 1.2344 0.35938 0.28906 0.24219 0.4375 0.58594 0.4375 1.0312 0 0.44922-0.14844 0.79297-0.4375 1.0312-0.28125 0.24219-0.69531 0.35938-1.2344 0.35938h-0.73438v1.4688h-1.0938zm1.0938 0.79688v1.1875h0.60938c0.21875 0 0.38281-0.050781 0.5-0.15625 0.11328-0.10156 0.17188-0.25 0.17188-0.4375s-0.058594-0.33203-0.17188-0.4375c-0.11719-0.10156-0.28125-0.15625-0.5-0.15625z"/>
  </symbol>
  <symbol id="g" overflow="visible">
   <path d="m3.0625-3.0938v0.84375c-0.13672-0.10156-0.27734-0.17578-0.42188-0.21875-0.13672-0.039062-0.27734-0.0625-0.42188-0.0625-0.29297 0-0.51562 0.085938-0.67188 0.25-0.15625 0.16797-0.23438 0.39844-0.23438 0.6875 0 0.30469 0.078125 0.53906 0.23438 0.70312 0.15625 0.16797 0.37891 0.25 0.67188 0.25 0.15625 0 0.30078-0.019531 0.4375-0.0625 0.14453-0.050781 0.28125-0.125 0.40625-0.21875v0.82812c-0.15625 0.0625-0.32031 0.10156-0.48438 0.125-0.16797 0.03125-0.32812 0.046875-0.48438 0.046875-0.58594 0-1.0391-0.14453-1.3594-0.4375-0.32422-0.28906-0.48438-0.70312-0.48438-1.2344 0-0.51953 0.16016-0.92578 0.48438-1.2188 0.32031-0.30078 0.77344-0.45312 1.3594-0.45312 0.16406 0 0.32812 0.015625 0.48438 0.046875 0.16406 0.03125 0.32812 0.074219 0.48438 0.125z"/>
  </symbol>
  <symbol id="u" overflow="visible">
   <path d="m0.09375-3.1875h1.0156l0.79688 2.2031 0.78125-2.2031h1.0312l-1.2656 3.1875h-1.1094z"/>
  </symbol>
  <symbol id="t" overflow="visible">
   <path d="m2.5938-4.4219v0.65625h-0.57812c-0.13672 0-0.23438 0.027344-0.29688 0.078125-0.054688 0.054688-0.078125 0.14844-0.078125 0.28125v0.21875h0.85938v0.73438h-0.85938v2.4531h-1.0156v-2.4531h-0.51562v-0.73438h0.51562v-0.21875c0-0.35156 0.09375-0.60938 0.28125-0.76562 0.19531-0.16406 0.5-0.25 0.90625-0.25z"/>
  </symbol>
  <symbol id="e" overflow="visible">
   <path d="m2-2.5312c-0.21875 0-0.39062 0.085938-0.51562 0.25-0.11719 0.15625-0.17188 0.38672-0.17188 0.6875 0 0.3125 0.054688 0.55469 0.17188 0.71875 0.125 0.15625 0.29688 0.23438 0.51562 0.23438 0.22656 0 0.39844-0.078125 0.51562-0.23438 0.11328-0.16406 0.17188-0.40625 0.17188-0.71875 0-0.30078-0.058594-0.53125-0.17188-0.6875-0.11719-0.16406-0.28906-0.25-0.51562-0.25zm0-0.73438c0.55078 0 0.97656 0.15234 1.2812 0.45312 0.3125 0.29297 0.46875 0.69922 0.46875 1.2188 0 0.52344-0.15625 0.93359-0.46875 1.2344-0.30469 0.29297-0.73047 0.4375-1.2812 0.4375-0.54297 0-0.96875-0.14453-1.2812-0.4375-0.3125-0.30078-0.46875-0.71094-0.46875-1.2344 0-0.51953 0.15625-0.92578 0.46875-1.2188 0.3125-0.30078 0.73828-0.45312 1.2812-0.45312z"/>
  </symbol>
  <symbol id="s" overflow="visible">
   <path d="m3.4375-2.6562c0.13281-0.19531 0.28906-0.34766 0.46875-0.45312 0.17578-0.10156 0.36719-0.15625 0.57812-0.15625 0.36328 0 0.64062 0.11719 0.82812 0.34375 0.19531 0.21875 0.29688 0.54688 0.29688 0.98438v1.9375h-1.0156v-1.6562-0.078125-0.125c0-0.21875-0.039062-0.37891-0.10938-0.48438-0.0625-0.10156-0.16797-0.15625-0.3125-0.15625-0.19922 0-0.35156 0.085938-0.45312 0.25-0.10547 0.15625-0.15625 0.38672-0.15625 0.6875v1.5625h-1.0312v-1.6562c0-0.35156-0.03125-0.58203-0.09375-0.6875-0.054688-0.10156-0.15625-0.15625-0.3125-0.15625-0.19922 0-0.35156 0.085938-0.45312 0.25-0.10547 0.15625-0.15625 0.38672-0.15625 0.6875v1.5625h-1.0312v-3.1875h1.0312v0.46875c0.125-0.17578 0.26562-0.3125 0.42188-0.40625 0.16406-0.09375 0.34375-0.14062 0.53125-0.14062 0.22656 0 0.42578 0.054687 0.59375 0.15625 0.16406 0.10547 0.28906 0.25781 0.375 0.45312z"/>
  </symbol>
  <symbol id="r" overflow="visible">
   <path d="m0.53125-4.25h1.2344l1.5312 2.9219v-2.9219h1.0469v4.25h-1.2188l-1.5469-2.9219v2.9219h-1.0469z"/>
  </symbol>
  <symbol id="q" overflow="visible">
   <path d="m0.45312-1.2344v-1.9531h1.0312v0.3125c0 0.17969-0.007813 0.39844-0.015625 0.65625v0.51562c0 0.26172 0.003906 0.44922 0.015625 0.5625 0.019531 0.11719 0.046875 0.19922 0.078125 0.25 0.039062 0.0625 0.09375 0.11719 0.15625 0.15625 0.070312 0.03125 0.14844 0.046875 0.23438 0.046875 0.21875 0 0.38281-0.078125 0.5-0.23438 0.125-0.16406 0.1875-0.39453 0.1875-0.6875v-1.5781h1.0156v3.1875h-1.0156v-0.46875c-0.15625 0.1875-0.32422 0.32812-0.5 0.42188-0.16797 0.082031-0.35547 0.125-0.5625 0.125-0.36719 0-0.64844-0.10938-0.84375-0.32812-0.1875-0.22656-0.28125-0.55469-0.28125-0.98438z"/>
  </symbol>
  <symbol id="p" overflow="visible">
   <path d="m3.6875-1.9375v1.9375h-1.0156v-1.4844c0-0.26953-0.011719-0.45703-0.03125-0.5625-0.011719-0.11328-0.027344-0.19141-0.046875-0.23438-0.042969-0.070312-0.10156-0.125-0.17188-0.15625-0.0625-0.039062-0.14062-0.0625-0.23438-0.0625-0.21094 0-0.375 0.085938-0.5 0.25-0.11719 0.16797-0.17188 0.39844-0.17188 0.6875v1.5625h-1.0312v-3.1875h1.0312v0.46875c0.14453-0.1875 0.30078-0.32031 0.46875-0.40625 0.17578-0.09375 0.36719-0.14062 0.57812-0.14062 0.375 0 0.65625 0.11719 0.84375 0.34375 0.1875 0.21875 0.28125 0.54688 0.28125 0.98438z"/>
  </symbol>
  <symbol id="o" overflow="visible">
   <path d="m0.48438-3.1875h1.0312v3.125c0 0.42578-0.10547 0.75391-0.3125 0.98438-0.21094 0.22656-0.50781 0.34375-0.89062 0.34375h-0.5v-0.67188h0.17188c0.1875 0 0.31641-0.046875 0.39062-0.14062 0.070312-0.085937 0.10938-0.25781 0.10938-0.51562zm0-1.2344h1.0312v0.82812h-1.0312z"/>
  </symbol>
 </defs>
 <g>
  <path d="m550.79 400.23c-31.734 0-62.301-17.965-76.766-48.535-19.949-42.234-1.8672-92.867 40.367-112.82s92.867-1.8672 112.82 40.367c9.6836 20.418 10.852 43.516 3.1484 64.75-7.582 21.352-23.102 38.383-43.516 48.066-11.551 5.6016-23.918 8.168-36.051 8.168zm-33.484-155.17 2.918 6.0664c-35.465 16.801-50.75 59.266-33.949 94.852 16.801 35.465 59.266 50.75 94.852 33.949 17.148-8.168 30.215-22.516 36.633-40.367 6.418-17.965 5.4844-37.215-2.6836-54.484-16.801-35.465-59.266-50.75-94.852-33.949z"/>
  <path d="m590.1 336.88c-7.3516 0-14.699-1.6328-21.465-5.0156-3.3828-1.6328-4.7852-5.7148-3.1484-9.1016 1.6328-3.3828 5.7148-4.7852 9.1016-3.1484 8.5156 4.1992 18.082 4.7852 27.066 1.75s16.215-9.4492 20.301-17.965c1.6328-3.3828 5.7148-4.7852 9.1016-3.1484 3.3828 1.6328 4.7852 5.7148 3.1484 9.1016-5.7148 11.785-15.75 20.535-28.117 24.734-5.375 1.8594-10.738 2.793-15.988 2.793z"/>
  <path d="m596.87 378.06c-22.398 0-42.699-15.633-47.832-38.383-0.81641-3.6172 1.5156-7.2344 5.1328-8.0508 3.6172-0.81641 7.2344 1.5156 8.0508 5.1328 4.1992 19.016 23.102 31.148 42.234 26.949 3.6172-0.81641 7.2344 1.5156 8.0508 5.1328 0.81641 3.6172-1.5156 7.2344-5.1328 8.0508-3.5039 0.81641-7.0039 1.168-10.504 1.168z"/>
  <path d="m542.27 399.64c-1.5156 0-3.0352-0.46484-4.1992-1.5156-21-17.035-24.266-47.832-7.2344-68.832 2.332-2.918 6.6484-3.3828 9.5664-1.0508 2.918 2.332 3.3828 6.6484 1.0508 9.5664-12.25 15.168-9.918 37.566 5.25 49.816 2.918 2.332 3.3828 6.6484 1.0508 9.5664-1.5156 1.6328-3.5 2.4492-5.4844 2.4492z"/>
  <path d="m484.98 363.94c-3.7344 0-6.7656-3.0352-6.7656-6.7656 0.23438-26.832 22.168-48.535 48.883-48.535h0.35156c3.7344 0 6.7656 3.0352 6.7656 6.7656 0 3.7344-3.0352 6.7656-6.7656 6.7656h-0.35156c-19.367 0-35.234 15.75-35.352 35.117 0 3.7344-3.0352 6.6523-6.7656 6.6523z"/>
  <path d="m536.32 303.98c-1.9844 0-3.9648-0.93359-5.3672-2.5664-5.832-7.4648-14.234-12.133-23.566-13.301-9.332-1.168-18.668 1.5156-26.133 7.3516-2.918 2.332-7.2344 1.75-9.4492-1.168-2.332-2.918-1.75-7.2344 1.168-9.4492 10.266-8.0508 23.102-11.668 36.051-10.148 12.949 1.5156 24.617 8.0508 32.668 18.316 2.332 2.918 1.75 7.2344-1.168 9.4492-1.2852 1.0469-2.6875 1.5156-4.2031 1.5156z"/>
  <path d="m571.67 312.38c-2.5664 0-5.0156-1.3984-6.0664-3.8516-1.6328-3.3828-0.11719-7.4648 3.2656-8.9844 17.617-8.3984 25.199-29.516 16.918-47.133-1.6328-3.3828-0.11719-7.4648 3.2656-8.9844 3.3828-1.6328 7.4648-0.11719 8.9844 3.2656 11.551 24.383 1.0508 53.668-23.332 65.215-1.0547 0.23828-2.1016 0.47266-3.0352 0.47266z"/>
  <path d="m556.04 299.66c-0.46484 0-1.0508-0.11719-1.5156-0.23438-3.6172-0.81641-5.832-4.5508-5.0156-8.168 4.4336-19.016-7.3516-38.148-26.367-42.582-3.6172-0.81641-5.832-4.5508-5.0156-8.168 0.81641-3.6172 4.5508-5.9492 8.168-5.0156 26.25 6.1836 42.582 32.551 36.398 58.918-0.82031 3.1484-3.6211 5.25-6.6523 5.25z"/>
  <path d="m550.67 345.51c-3.3828 0-6.8828-0.58203-10.148-1.75-7.582-2.6836-13.535-8.168-17.035-15.398-3.3828-7.2344-3.8516-15.398-1.168-22.984 2.6836-7.582 8.168-13.535 15.398-17.035 7.2344-3.3828 15.398-3.8516 22.984-1.168 7.582 2.6836 13.535 8.168 17.035 15.398 3.3828 7.2344 3.8516 15.398 1.168 22.984-2.6836 7.582-8.168 13.535-15.398 17.035-4.0859 1.9844-8.4023 2.918-12.836 2.918zm0-46.434c-2.4492 0-4.7852 0.58203-7 1.6328-3.9648 1.8672-7 5.25-8.5156 9.332-1.5156 4.082-1.2852 8.6328 0.58203 12.602 1.8672 3.9648 5.25 7 9.332 8.5156 4.082 1.5156 8.6328 1.2852 12.602-0.58203 3.9648-1.8672 7-5.25 8.5156-9.332 1.5156-4.082 1.2852-8.6328-0.58203-12.602-1.8672-3.9648-5.25-7-9.332-8.5156-1.8711-0.81641-3.7344-1.0508-5.6016-1.0508z"/>
  <path d="m372.05 400.34c-13.301 0-26.484-3.1484-38.617-9.4492-41.535-21.352-57.984-72.566-36.633-114.1 10.383-20.184 27.883-35 49.465-41.883s44.566-5.0156 64.633 5.3672c20.184 10.383 35 27.883 41.883 49.465s5.0156 44.566-5.3672 64.633c-10.383 20.184-27.883 35-49.465 41.883-8.5156 2.6875-17.266 4.0859-25.898 4.0859zm-63.234-117.36c-17.965 34.883-4.1992 77.934 30.801 95.898 16.918 8.75 36.168 10.266 54.367 4.4336 18.082-5.832 32.898-18.316 41.535-35.234 8.6328-16.918 10.266-36.168 4.4336-54.367-5.832-18.082-18.316-32.898-35.234-41.535-16.918-8.75-36.168-10.266-54.367-4.4336-18.086 5.7188-32.902 18.32-41.535 35.238z"/>
  <path d="m394.92 317.74c-3.1484 0-5.9492-2.2148-6.6484-5.4844-0.69922-3.6172 1.6328-7.2344 5.25-7.9336 9.2148-1.8672 17.266-7.2344 22.516-15.051 5.25-7.8164 7.1172-17.266 5.25-26.602-0.69922-3.6172 1.6328-7.2344 5.25-7.9336 3.6172-0.69922 7.2344 1.6328 7.9336 5.25 2.5664 12.832 0 25.898-7.2344 36.75-7.2344 10.852-18.316 18.316-31.148 20.883-0.35156 0.003906-0.82031 0.12109-1.168 0.12109z"/>
  <path d="m416.96 347.14c-11.082 0-22.285-3.7344-31.5-11.434-2.918-2.4492-3.2656-6.6484-0.81641-9.5664 2.4492-2.918 6.6484-3.2656 9.5664-0.81641 7.2344 6.0664 16.449 8.9844 25.785 8.168 9.4492-0.81641 17.965-5.25 24.035-12.484 2.4492-2.918 6.6484-3.2656 9.5664-0.81641 2.918 2.4492 3.2656 6.6484 0.81641 9.5664-9.5664 11.434-23.453 17.383-37.453 17.383z"/>
  <path d="m412.54 388.79h-0.23438c-13.066-0.35156-25.199-5.7148-34.184-15.285-8.9844-9.4492-13.766-21.934-13.418-35 0.11719-3.7344 3.2656-6.6484 7-6.5352 3.7344 0.11719 6.6484 3.1484 6.5352 7-0.23438 9.4492 3.1484 18.434 9.6836 25.316 6.5352 6.8828 15.285 10.734 24.734 10.965 3.7344 0.11719 6.6484 3.1484 6.5352 7-0.003906 3.6211-2.9219 6.5391-6.6523 6.5391z"/>
  <path d="m345.33 395.32c-2.1016 0-4.082-0.93359-5.3672-2.6836-16.215-21.582-12.016-52.266 9.5664-68.602 3.0352-2.2148 7.2344-1.6328 9.4492 1.2852 2.2148 3.0352 1.6328 7.2344-1.2852 9.4492-15.633 11.785-18.668 34.066-6.8828 49.582 2.2148 3.0352 1.6328 7.2344-1.2852 9.4492-1.2773 1.0547-2.793 1.5195-4.1953 1.5195z"/>
  <path d="m298.32 346.91c-0.58203 0-1.168-0.11719-1.6328-0.23438-3.6172-0.93359-5.832-4.668-4.8984-8.2852 3.2656-12.715 11.199-23.332 22.516-29.984 11.199-6.6484 24.383-8.5156 37.102-5.25 3.6172 0.93359 5.832 4.668 4.8984 8.2852-0.93359 3.6172-4.668 5.832-8.2852 4.8984-9.2148-2.332-18.668-0.93359-26.832 3.8516-8.168 4.7852-13.883 12.484-16.215 21.699-0.93359 3.0352-3.6172 5.0195-6.6523 5.0195z"/>
  <path d="m382.67 301.64c-1.0508 0-2.1016-0.23438-3.0352-0.69922-3.2656-1.75-4.668-5.832-2.918-9.1016 8.9844-17.383 2.1016-38.734-15.285-47.715-3.2656-1.75-4.668-5.832-2.918-9.1016 1.75-3.2656 5.832-4.668 9.1016-2.918 24.035 12.367 33.484 41.883 21.117 65.918-1.1641 2.2188-3.4961 3.6172-6.0625 3.6172z"/>
  <path d="m362.6 301.06c-2.5664 0-5.0156-1.5156-6.1836-3.9648-8.0508-17.852-29.051-25.785-46.785-17.734-3.3828 1.5156-7.4648 0-8.9844-3.3828-1.5156-3.3828 0-7.4648 3.3828-8.9844 24.617-11.082 53.668 0 64.75 24.617 1.5156 3.3828 0 7.4648-3.3828 8.9844-0.93359 0.34766-1.8633 0.46484-2.7969 0.46484z"/>
  <path d="m372.05 345.51c-4.668 0-9.332-1.0508-13.648-3.2656-7.1172-3.6172-12.367-9.918-14.816-17.5-2.4492-7.582-1.75-15.75 1.8672-22.867 7.582-14.699 25.668-20.535 40.367-12.949 14.699 7.582 20.535 25.668 12.949 40.367-5.2539 10.266-15.871 16.215-26.719 16.215zm-14.586-37.566c-1.9844 3.9648-2.332 8.3984-1.0508 12.602 1.3984 4.1992 4.1992 7.582 8.168 9.5664 8.0508 4.1992 17.965 0.93359 22.168-7.1172 4.1992-8.0508 0.93359-17.965-7.1172-22.168-8.0508-4.082-17.965-0.93359-22.168 7.1172z"/>
  <path d="m193.55 400.23c-46.785 0-84.699-38.035-84.699-84.699 0-46.785 38.035-84.699 84.699-84.699 46.668 0 84.699 38.035 84.699 84.699 0 46.664-38.035 84.699-84.699 84.699zm0-155.98c-39.316 0-71.168 31.965-71.168 71.168 0 39.316 31.965 71.168 71.168 71.168 39.316 0 71.168-31.965 71.168-71.168-0.003906-39.203-31.852-71.168-71.168-71.168z"/>
  <path d="m211.75 307.82c-1.9844 0-3.9648-0.81641-5.25-2.5664-2.332-2.918-1.8672-7.2344 1.0508-9.5664 15.285-12.133 17.734-34.535 5.6016-49.699-2.332-2.918-1.8672-7.2344 1.0508-9.5664s7.2344-1.8672 9.5664 1.0508c16.801 21.117 13.301 51.918-7.6992 68.832-1.4023 1.0508-2.9219 1.5156-4.3203 1.5156z"/>
  <path d="m225.63 328.48c-3.6172 0-7.2344-0.35156-10.852-1.2852-3.6172-0.81641-5.9492-4.4336-5.1328-8.0508 0.81641-3.6172 4.4336-5.9492 8.0508-5.1328 9.2148 2.1016 18.668 0.46484 26.715-4.5508 8.0508-5.0156 13.535-12.832 15.633-22.051 0.81641-3.6172 4.4336-5.9492 8.0508-5.1328 3.6172 0.81641 5.9492 4.4336 5.1328 8.0508-5.1289 22.75-25.312 38.152-47.598 38.152z"/>
  <path d="m241.73 367.09c-18.199 0-35.699-10.266-44.215-27.648-1.6328-3.3828-0.23438-7.4648 3.1484-8.9844 3.3828-1.6328 7.4648-0.23438 8.9844 3.1484 8.5156 17.617 29.633 24.965 47.25 16.566 3.3828-1.6328 7.4648-0.23438 8.9844 3.1484 1.5156 3.3828 0.23438 7.4648-3.1484 8.9844-6.6562 3.1523-13.887 4.7852-21.004 4.7852z"/>
  <path d="m203.12 399.52c-0.93359 0-1.9844-0.23438-2.918-0.69922-24.266-11.668-34.535-41.066-22.867-65.332 1.6328-3.3828 5.7148-4.7852 8.9844-3.1484 3.3828 1.6328 4.7852 5.7148 3.1484 8.9844-8.5156 17.617-1.0508 38.734 16.566 47.25 3.3828 1.6328 4.7852 5.7148 3.1484 8.9844-1.0469 2.5625-3.4961 3.9609-6.0625 3.9609z"/>
  <path d="m139.18 377.94c-3.0352 0-5.832-2.1016-6.5352-5.25-2.918-12.715-0.69922-25.898 6.3008-36.984 7-11.082 17.852-18.785 30.566-21.699 3.6172-0.81641 7.2344 1.3984 8.0508 5.1328s-1.3984 7.2344-5.1328 8.0508c-9.2148 2.1016-17.035 7.6992-22.051 15.633-5.0156 7.9336-6.6484 17.5-4.5508 26.715 0.81641 3.6172-1.3984 7.2344-5.1328 8.0508-0.58203 0.23438-1.0508 0.35156-1.5156 0.35156z"/>
  <path d="m193.55 299.07c-3.7344 0-6.7656-3.0352-6.7656-6.7656 0-19.484-15.867-35.352-35.352-35.352-3.7344 0-6.7656-3.0352-6.7656-6.7656 0-3.7344 3.0352-6.7656 6.7656-6.7656 26.949 0 48.883 21.934 48.883 48.883 0 3.7344-3.0312 6.7656-6.7656 6.7656z"/>
  <path d="m116.08 314.48c-1.5156 0-2.918-0.46484-4.1992-1.5156-2.918-2.332-3.3828-6.5352-1.0508-9.5664 8.168-10.266 19.832-16.684 32.785-18.082 12.949-1.5156 25.785 2.2148 36.051 10.383 2.918 2.332 3.3828 6.5352 1.0508 9.5664-2.332 2.918-6.5352 3.3828-9.5664 1.0508-7.3516-5.9492-16.684-8.5156-26.016-7.4648-9.4492 1.0508-17.852 5.7148-23.684 13.066-1.4023 1.6289-3.3867 2.5625-5.3711 2.5625z"/>
  <path d="m193.55 345.51c-16.566 0-29.984-13.418-29.984-29.984 0-16.566 13.418-29.984 29.984-29.984 16.566 0 29.984 13.418 29.984 29.984 0 16.566-13.418 29.984-29.984 29.984zm0-46.434c-9.1016 0-16.449 7.3516-16.449 16.449 0 9.1016 7.3516 16.449 16.449 16.449 9.1016 0 16.449-7.3516 16.449-16.449 0-9.0977-7.3516-16.449-16.449-16.449z"/>
  <path d="m69.301 435.46c-3.7344 0-6.7656-3.0352-6.7656-6.7656v-229.6h-15.285c-3.7344 0-6.7656-3.0352-6.7656-6.7656 0-3.7344 3.0352-6.7656 6.7656-6.7656h22.051c3.7344 0 6.7656 3.0352 6.7656 6.7656v236.37c0 3.7344-3.0312 6.7656-6.7656 6.7656z"/>
  <path d="m69.301 261.27h-20.766c-3.7344 0-6.7656-3.0352-6.7656-6.7656v-33.832c0-3.7344 3.0352-6.7656 6.7656-6.7656h20.766c3.7344 0 6.7656 3.0352 6.7656 6.7656v33.832c0 3.7344-3.0312 6.7656-6.7656 6.7656zm-14-13.531h7.2344v-20.184h-7.2344z"/>
  <path d="m68.715 385.18h-20.883c-3.7344 0-6.7656-3.0352-6.7656-6.7656v-103.02c0-3.7344 3.0352-6.7656 6.7656-6.7656h20.766c3.7344 0 6.7656 3.0352 6.7656 6.7656v103.02c0.12109 3.7344-2.9141 6.7695-6.6484 6.7695zm-14.113-13.535h7.2344v-89.484h-7.2344z"/>
  <path d="m142.33 439.19h-22.285c-3.7344 0-6.7656-3.0352-6.7656-6.7656v-18.898c0-3.7344 3.0352-6.7656 6.7656-6.7656 3.7344 0 6.7656 3.0352 6.7656 6.7656v12.133h8.75v-12.133c0-3.7344 3.0352-6.7656 6.7656-6.7656 3.7344 0 6.7656 3.0352 6.7656 6.7656v18.898c0.007812 3.7344-3.0273 6.7656-6.7617 6.7656z"/>
  <path d="m394.92 439.19h-22.285c-3.7344 0-6.7656-3.0352-6.7656-6.7656v-18.898c0-3.7344 3.0352-6.7656 6.7656-6.7656 3.7344 0 6.7656 3.0352 6.7656 6.7656v12.133h8.75v-12.133c0-3.7344 3.0352-6.7656 6.7656-6.7656 3.7344 0 6.7656 3.0352 6.7656 6.7656v18.898c0.003906 3.7344-3.0312 6.7656-6.7617 6.7656z"/>
  <path d="m351.63 439.19h-188.88c-3.7344 0-6.7656-3.0352-6.7656-6.7656v-18.898c0-3.7344 3.0352-6.7656 6.7656-6.7656 3.7344 0 6.7656 3.0352 6.7656 6.7656v12.133h175.35v-12.133c0-3.7344 3.0352-6.7656 6.7656-6.7656 3.7344 0 6.7656 3.0352 6.7656 6.7656v18.898c0 3.7344-3.0312 6.7656-6.7656 6.7656z"/>
  <path d="m88.316 238.18h-19.016c-3.7344 0-6.7656-3.0352-6.7656-6.7656 0-3.7344 3.0352-6.7656 6.7656-6.7656h18.898c3.7344 0 6.7656 3.0352 6.7656 6.7656 0 3.7305-2.9141 6.7656-6.6484 6.7656z"/>
  <path d="m88.316 403.73h-16.332c-3.7344 0-6.7656-3.0352-6.7656-6.7656 0-3.7344 3.0352-6.7656 6.7656-6.7656h16.215c3.7344 0 6.7656 3.0352 6.7656 6.7656 0 3.7305-2.9141 6.7656-6.6484 6.7656z"/>
  <path d="m652.75 420.29h-562.33c-3.7344 0-6.7656-3.0352-6.7656-6.7656v-196c0-3.7344 3.0352-6.7656 6.7656-6.7656h562.33c3.7344 0 6.7656 3.0352 6.7656 6.7656v196c0 3.7305-3.0312 6.7656-6.7656 6.7656zm-555.57-13.535h548.8v-182.46h-548.8z"/>
  <use y="480.375" xlink:href="#v"/>
  <use x="4.28125" y="480.375" xlink:href="#c"/>
  <use x="7.15625" y="480.375" xlink:href="#a"/>
  <use x="11.113281" y="480.375" xlink:href="#f"/>
  <use x="15.050781" y="480.375" xlink:href="#b"/>
  <use x="17.839844" y="480.375" xlink:href="#a"/>
  <use x="21.796875" y="480.375" xlink:href="#n"/>
  <use x="28" y="480.375" xlink:href="#m"/>
  <use x="32.175781" y="480.375" xlink:href="#l"/>
  <use x="38.011719" y="480.375" xlink:href="#k"/>
  <use x="43.816406" y="480.375" xlink:href="#j"/>
  <use x="45.816406" y="480.375" xlink:href="#i"/>
  <use x="49.289062" y="480.375" xlink:href="#d"/>
  <use x="53.441406" y="480.375" xlink:href="#f"/>
  <use x="59.40625" y="480.375" xlink:href="#h"/>
  <use x="63.683594" y="480.375" xlink:href="#a"/>
  <use x="67.640625" y="480.375" xlink:href="#b"/>
  <use x="70.425781" y="480.375" xlink:href="#c"/>
  <use x="73.304688" y="480.375" xlink:href="#j"/>
  <use x="75.304688" y="480.375" xlink:href="#i"/>
  <use x="78.777344" y="480.375" xlink:href="#d"/>
  <use x="82.929688" y="480.375" xlink:href="#g"/>
  <use x="86.386719" y="480.375" xlink:href="#d"/>
  <use x="90.539062" y="480.375" xlink:href="#a"/>
  <use x="94.496094" y="480.375" xlink:href="#u"/>
  <use y="486.207031" xlink:href="#t"/>
  <use x="2.539062" y="486.207031" xlink:href="#c"/>
  <use x="5.414062" y="486.207031" xlink:href="#e"/>
  <use x="9.421875" y="486.207031" xlink:href="#s"/>
  <use x="17.53125" y="486.207031" xlink:href="#b"/>
  <use x="20.320312" y="486.207031" xlink:href="#d"/>
  <use x="24.472656" y="486.207031" xlink:href="#a"/>
  <use x="30.460938" y="486.207031" xlink:href="#r"/>
  <use x="35.34375" y="486.207031" xlink:href="#e"/>
  <use x="39.347656" y="486.207031" xlink:href="#q"/>
  <use x="43.503906" y="486.207031" xlink:href="#p"/>
  <use x="49.6875" y="486.207031" xlink:href="#h"/>
  <use x="53.960938" y="486.207031" xlink:href="#c"/>
  <use x="56.839844" y="486.207031" xlink:href="#e"/>
  <use x="60.84375" y="486.207031" xlink:href="#o"/>
  <use x="62.84375" y="486.207031" xlink:href="#a"/>
  <use x="66.800781" y="486.207031" xlink:href="#g"/>
  <use x="70.257812" y="486.207031" xlink:href="#b"/>
 </g>
</svg>
